<?xml version="1.0" encoding="UTF-8" standalone="no"?>
<svg
   xmlns:dc="http://purl.org/dc/elements/1.1/"
   xmlns:cc="http://creativecommons.org/ns#"
   xmlns:rdf="http://www.w3.org/1999/02/22-rdf-syntax-ns#"
   xmlns:svg="http://www.w3.org/2000/svg"
   xmlns="http://www.w3.org/2000/svg"
   xml:space="preserve"
   style="enable-background:new 0 0 512 512;"
   viewBox="0 0 512 512"
   y="0px"
   x="0px"
   id="Layer_1"
   version="1.1"><metadata
   id="metadata43"><rdf:RDF><cc:Work
       rdf:about=""><dc:format>image/svg+xml</dc:format><dc:type
         rdf:resource="http://purl.org/dc/dcmitype/StillImage" /><dc:title></dc:title></cc:Work></rdf:RDF></metadata><defs
   id="defs41" />



<g
   id="g8">
</g>
<g
   id="g10">
</g>
<g
   id="g12">
</g>
<g
   id="g14">
</g>
<g
   id="g16">
</g>
<g
   id="g18">
</g>
<g
   id="g20">
</g>
<g
   id="g22">
</g>
<g
   id="g24">
</g>
<g
   id="g26">
</g>
<g
   id="g28">
</g>
<g
   id="g30">
</g>
<g
   id="g32">
</g>
<g
   id="g34">
</g>
<g
   id="g36">
</g>
<path
   id="path131"
   d="M 463.33537,420.50768 H 46.494301 c -4.110701,0 -7.443952,-3.33325 -7.443952,-7.44395 V 55.770903 c 0,-4.110701 3.333251,-7.443952 7.443952,-7.443952 H 463.33621 c 4.1107,0 7.44395,3.333251 7.44395,7.443952 V 413.06373 c -8.4e-4,4.1107 -3.33409,7.44395 -7.44479,7.44395 z"
   style="fill:#d9dde2;stroke-width:0.84322065" /><path
   id="path133"
   d="M 68.824473,413.06373 V 55.770903 c 0,-4.110701 3.333252,-7.443952 7.443952,-7.443952 H 46.494301 c -4.110701,0 -7.443952,3.333251 -7.443952,7.443952 V 413.06373 c 0,4.1107 3.333251,7.44395 7.443952,7.44395 h 29.774124 c -4.1107,0 -7.443952,-3.33325 -7.443952,-7.44395 z"
   style="fill:#c7ccd4;stroke-width:0.84322065" /><path
   id="path135"
   d="M 463.33537,48.326951 H 46.494301 c -4.110701,0 -7.443952,3.333251 -7.443952,7.443952 V 137.65016 H 470.77932 V 55.770903 c 0,-4.110701 -3.33325,-7.443952 -7.44395,-7.443952 z"
   style="fill:#7c899b;stroke-width:0.84322065" /><path
   id="path137"
   d="M 76.268425,48.326951 H 46.494301 c -4.110701,0 -7.443952,3.333251 -7.443952,7.443952 V 137.65016 H 68.824473 V 55.770903 c 0,-4.110701 3.333252,-7.443952 7.443952,-7.443952 z"
   style="fill:#69788d;stroke-width:0.84322065" /><circle
   id="circle139"
   r="22.331013"
   cy="92.988976"
   cx="418.67416"
   style="fill:#ffa393;stroke-width:0.84322065" /><circle
   id="circle141"
   r="22.331013"
   cy="92.988976"
   cx="359.12509"
   style="fill:#ffe285;stroke-width:0.84322065" /><circle
   id="circle143"
   r="22.331013"
   cy="92.988976"
   cx="299.57684"
   style="fill:#63caed;stroke-width:0.84322065" /><g
   transform="matrix(0.84322065,0,0,0.84322065,39.050349,18.55283)"
   id="g149">
	<path
   id="path145"
   d="M 150.069,105.379 H 44.138 c -4.572,0 -8.276,-3.704 -8.276,-8.276 0,-4.572 3.704,-8.276 8.276,-8.276 h 105.931 c 4.572,0 8.276,3.704 8.276,8.276 0,4.572 -3.704,8.276 -8.276,8.276 z"
   style="fill:#c7ccd4" />
	<path
   id="path147"
   d="m 220.69,105.379 h -26.483 c -4.572,0 -8.276,-3.704 -8.276,-8.276 0,-4.572 3.704,-8.276 8.276,-8.276 h 26.483 c 4.572,0 8.276,3.704 8.276,8.276 0,4.572 -3.705,8.276 -8.276,8.276 z"
   style="fill:#c7ccd4" />
</g><circle
   id="circle165"
   r="96.767159"
   cy="264.19144"
   cx="253.98474"
   style="fill:#63caed;fill-opacity:1;stroke-width:0.84322065" /><g
   transform="translate(91.118146,-357.9661)"
   id="g171">
</g><g
   transform="translate(91.118146,-357.9661)"
   id="g173">
</g><g
   transform="translate(91.118146,-357.9661)"
   id="g175">
</g><g
   transform="translate(91.118146,-357.9661)"
   id="g177">
</g><g
   transform="translate(91.118146,-357.9661)"
   id="g179">
</g><g
   transform="translate(91.118146,-357.9661)"
   id="g181">
</g><g
   transform="translate(91.118146,-357.9661)"
   id="g183">
</g><g
   transform="translate(91.118146,-357.9661)"
   id="g185">
</g><g
   transform="translate(91.118146,-357.9661)"
   id="g187">
</g><g
   transform="translate(91.118146,-357.9661)"
   id="g189">
</g><g
   transform="translate(91.118146,-357.9661)"
   id="g191">
</g><g
   transform="translate(91.118146,-357.9661)"
   id="g193">
</g><g
   transform="translate(91.118146,-357.9661)"
   id="g195">
</g><g
   transform="translate(91.118146,-357.9661)"
   id="g197">
</g><g
   transform="translate(91.118146,-357.9661)"
   id="g199">
</g><text
   id="text51"
   y="323.2634"
   x="177.13437"
   style="font-style:normal;font-variant:normal;font-weight:bold;font-stretch:normal;font-size:224.85882568px;line-height:1.25;font-family:Dingbats;-inkscape-font-specification:'Dingbats Bold';letter-spacing:0px;word-spacing:0px;fill:#ffffff;fill-opacity:1;stroke:none;stroke-width:1.37528706"
   xml:space="preserve"><tspan
     style="font-style:normal;font-variant:normal;font-weight:bold;font-stretch:normal;font-size:224.85882568px;font-family:Dingbats;-inkscape-font-specification:'Dingbats Bold';fill:#ffffff;fill-opacity:1;stroke-width:1.37528706"
     y="323.2634"
     x="177.13437"
     id="tspan49">e</tspan></text>
</svg>